{"accessors":[{"bufferView":0,"byteOffset":0,"componentType":5126,"count":274,"max":[1,0.152807,0.999979],"min":[-1,0,-1],"normalized":false,"type":"VEC3"},{"bufferView":1,"byteOffset":0,"componentType":5126,"count":274,"max":[1,0.000015,1,1],"min":[0.000024,0,-1,-1],"normalized":false,"type":"VEC4"},{"bufferView":2,"byteOffset":0,"componentType":5126,"count":274,"max":[1,1,1],"min":[-1,-0.000015,-1],"normalized":false,"type":"VEC3"},{"bufferView":3,"byteOffset":0,"componentType":5126,"count":274,"max":[1,1],"min":[-0.000015,-0.000015],"normalized":false,"type":"VEC2"},{"bufferView":4,"byteOffset":0,"componentType":5125,"count":864,"max":[273],"min":[0],"normalized":false,"type":"SCALAR"},{"bufferView":5,"byteOffset":0,"componentType":5126,"count":864,"max":[1,0.1528,1],"min":[-1,0,-1],"normalized":false,"type":"VEC3"},{"bufferView":6,"byteOffset":0,"componentType":5125,"count":864,"max":[863],"min":[0],"normalized":false,"type":"SCALAR"},{"bufferView":7,"byteOffset":0,"componentType":5126,"count":307,"max":[1,0.152807,0.999979],"min":[-1,0,-1],"normalized":false,"type":"VEC3"},{"bufferView":8,"byteOffset":0,"componentType":5126,"count":307,"max":[1,0.000015,1,1],"min":[0.000024,0,-1,-1],"normalized":false,"type":"VEC4"},{"bufferView":9,"byteOffset":0,"componentType":5126,"count":307,"max":[1,1,1],"min":[-1,-0.000015,-1],"normalized":false,"type":"VEC3"},{"bufferView":10,"byteOffset":0,"componentType":5126,"count":307,"max":[1,1],"min":[-0.000015,-0.000015],"normalized":false,"type":"VEC2"},{"bufferView":11,"byteOffset":0,"componentType":5125,"count":948,"max":[306],"min":[0],"normalized":false,"type":"SCALAR"},{"bufferView":12,"byteOffset":0,"componentType":5126,"count":948,"max":[1,0.1528,1],"min":[-1,0,-1],"normalized":false,"type":"VEC3"},{"bufferView":13,"byteOffset":0,"componentType":5125,"count":948,"max":[947],"min":[0],"normalized":false,"type":"SCALAR"},{"bufferView":14,"byteOffset":0,"componentType":5126,"count":738,"max":[1,0.152807,0.999979],"min":[-1,-0.07857,-1],"normalized":false,"type":"VEC3"},{"bufferView":15,"byteOffset":0,"componentType":5126,"count":738,"max":[1,0.940498,1,1],"min":[-0.029077,-0.940539,-1,-1],"normalized":false,"type":"VEC4"},{"bufferView":16,"byteOffset":0,"componentType":5126,"count":738,"max":[1,1,1],"min":[-1,-0.000015,-1],"normalized":false,"type":"VEC3"},{"bufferView":17,"byteOffset":0,"componentType":5126,"count":738,"max":[1,1],"min":[-0.000015,-0.000015],"normalized":false,"type":"VEC2"},{"bufferView":18,"byteOffset":0,"componentType":5125,"count":1524,"max":[708],"min":[0],"normalized":false,"type":"SCALAR"},{"bufferView":19,"byteOffset":0,"componentType":5126,"count":1524,"max":[1,0.1528,1],"min":[-1,-0.0786,-1],"normalized":false,"type":"VEC3"},{"bufferView":20,"byteOffset":0,"componentType":5125,"count":1524,"max":[1523],"min":[0],"normalized":false,"type":"SCALAR"},{"bufferView":21,"byteOffset":0,"componentType":5126,"count":256,"max":[1,0.152807,0.999979],"min":[-1,0,-1],"normalized":false,"type":"VEC3"},{"bufferView":22,"byteOffset":0,"componentType":5126,"count":256,"max":[1,0.000015,1,1],"min":[0.000024,0,-1,-1],"normalized":false,"type":"VEC4"},{"bufferView":23,"byteOffset":0,"componentType":5126,"count":256,"max":[1,1,1],"min":[-1,-0.000015,-1],"normalized":false,"type":"VEC3"},{"bufferView":24,"byteOffset":0,"componentType":5126,"count":256,"max":[1,1],"min":[-0.000015,-0.000015],"normalized":false,"type":"VEC2"},{"bufferView":25,"byteOffset":0,"componentType":5125,"count":840,"max":[255],"min":[0],"normalized":false,"type":"SCALAR"},{"bufferView":26,"byteOffset":0,"componentType":5126,"count":840,"max":[1,0.1528,1],"min":[-1,0,-1],"normalized":false,"type":"VEC3"},{"bufferView":27,"byteOffset":0,"componentType":5125,"count":840,"max":[839],"min":[0],"normalized":false,"type":"SCALAR"},{"bufferView":28,"byteOffset":0,"componentType":5126,"count":395,"max":[1,0.152807,0.999979],"min":[-1,0,-1],"normalized":false,"type":"VEC3"},{"bufferView":29,"byteOffset":0,"componentType":5126,"count":395,"max":[1,0.768394,1,1],"min":[-0.794552,-0.621055,-1,-1],"normalized":false,"type":"VEC4"},{"bufferView":30,"byteOffset":0,"componentType":5126,"count":395,"max":[1,1,1],"min":[-1,-0.000027,-1],"normalized":false,"type":"VEC3"},{"bufferView":31,"byteOffset":0,"componentType":5126,"count":395,"max":[1,1],"min":[-0.000015,-0.000015],"normalized":false,"type":"VEC2"},{"bufferView":32,"byteOffset":0,"componentType":5125,"count":864,"max":[381],"min":[0],"normalized":false,"type":"SCALAR"},{"bufferView":33,"byteOffset":0,"componentType":5126,"count":864,"max":[1,0.1528,1],"min":[-1,0,-1],"normalized":false,"type":"VEC3"},{"bufferView":34,"byteOffset":0,"componentType":5125,"count":864,"max":[863],"min":[0],"normalized":false,"type":"SCALAR"}],"asset":{"generator":"Godot Engine v4.2.1.stable.official@b09f793f564a6c95dc76acc654b390e68441bd01","version":"2.0"},"bufferViews":[{"buffer":0,"byteLength":3288,"byteOffset":0},{"buffer":0,"byteLength":4384,"byteOffset":3288},{"buffer":0,"byteLength":3288,"byteOffset":7672},{"buffer":0,"byteLength":2192,"byteOffset":10960},{"buffer":0,"byteLength":3456,"byteOffset":13152},{"buffer":0,"byteLength":10368,"byteOffset":16608},{"buffer":0,"byteLength":3456,"byteOffset":26976},{"buffer":0,"byteLength":3684,"byteOffset":30432},{"buffer":0,"byteLength":4912,"byteOffset":34116},{"buffer":0,"byteLength":3684,"byteOffset":39028},{"buffer":0,"byteLength":2456,"byteOffset":42712},{"buffer":0,"byteLength":3792,"byteOffset":45168},{"buffer":0,"byteLength":11376,"byteOffset":48960},{"buffer":0,"byteLength":3792,"byteOffset":60336},{"buffer":0,"byteLength":8856,"byteOffset":64128},{"buffer":0,"byteLength":11808,"byteOffset":72984},{"buffer":0,"byteLength":8856,"byteOffset":84792},{"buffer":0,"byteLength":5904,"byteOffset":93648},{"buffer":0,"byteLength":6096,"byteOffset":99552},{"buffer":0,"byteLength":18288,"byteOffset":105648},{"buffer":0,"byteLength":6096,"byteOffset":123936},{"buffer":0,"byteLength":3072,"byteOffset":130032},{"buffer":0,"byteLength":4096,"byteOffset":133104},{"buffer":0,"byteLength":3072,"byteOffset":137200},{"buffer":0,"byteLength":2048,"byteOffset":140272},{"buffer":0,"byteLength":3360,"byteOffset":142320},{"buffer":0,"byteLength":10080,"byteOffset":145680},{"buffer":0,"byteLength":3360,"byteOffset":155760},{"buffer":0,"byteLength":4740,"byteOffset":159120},{"buffer":0,"byteLength":6320,"byteOffset":163860},{"buffer":0,"byteLength":4740,"byteOffset":170180},{"buffer":0,"byteLength":3160,"byteOffset":174920},{"buffer":0,"byteLength":3456,"byteOffset":178080},{"buffer":0,"byteLength":10368,"byteOffset":181536},{"buffer":0,"byteLength":3456,"byteOffset":191904}],"buffers":[{"byteLength":195360,"uri":"golf_area_gridmap0.bin"}],"extensions":{"OMI_collider":{"colliders":[{"mesh":1,"type":"trimesh"},{"mesh":3,"type":"trimesh"},{"mesh":5,"type":"trimesh"},{"mesh":7,"type":"trimesh"},{"mesh":9,"type":"trimesh"}]}},"extensionsUsed":["GODOT_single_root","OMI_collider","OMI_physics_body"],"materials":[{"doubleSided":true,"extensions":{},"name":"Material_001","pbrMetallicRoughness":{"baseColorFactor":[0.0257710665464401,0.800370454788208,0,1],"metallicFactor":0,"roughnessFactor":0.5}}],"meshes":[{"extras":{"targetNames":[]},"primitives":[{"attributes":{"NORMAL":2,"POSITION":0,"TANGENT":1,"TEXCOORD_0":3},"indices":4,"material":0,"mode":4}]},{"extras":{"targetNames":[]},"primitives":[{"attributes":{"POSITION":5},"indices":6,"mode":4}]},{"extras":{"targetNames":[]},"primitives":[{"attributes":{"NORMAL":9,"POSITION":7,"TANGENT":8,"TEXCOORD_0":10},"indices":11,"material":0,"mode":4}]},{"extras":{"targetNames":[]},"primitives":[{"attributes":{"POSITION":12},"indices":13,"mode":4}]},{"extras":{"targetNames":[]},"primitives":[{"attributes":{"NORMAL":16,"POSITION":14,"TANGENT":15,"TEXCOORD_0":17},"indices":18,"material":0,"mode":4}]},{"extras":{"targetNames":[]},"primitives":[{"attributes":{"POSITION":19},"indices":20,"mode":4}]},{"extras":{"targetNames":[]},"primitives":[{"attributes":{"NORMAL":23,"POSITION":21,"TANGENT":22,"TEXCOORD_0":24},"indices":25,"material":0,"mode":4}]},{"extras":{"targetNames":[]},"primitives":[{"attributes":{"POSITION":26},"indices":27,"mode":4}]},{"extras":{"targetNames":[]},"primitives":[{"attributes":{"NORMAL":30,"POSITION":28,"TANGENT":29,"TEXCOORD_0":31},"indices":32,"material":0,"mode":4}]},{"extras":{"targetNames":[]},"primitives":[{"attributes":{"POSITION":33},"indices":34,"mode":4}]}],"nodes":[{"children":[1,4,7,10,13],"extensions":{},"name":"Node3D"},{"children":[2],"extensions":{},"mesh":0,"name":"Flat"},{"children":[3],"extensions":{"OMI_physics_body":{"type":"static"}},"name":"StaticBody3D"},{"extensions":{"OMI_collider":{"collider":0}},"name":"CollisionShape3D"},{"children":[5],"extensions":{},"mesh":2,"name":"End","translation":[2.17585134506226,0,0]},{"children":[6],"extensions":{"OMI_physics_body":{"type":"static"}},"name":"StaticBody3D2"},{"extensions":{"OMI_collider":{"collider":1}},"name":"CollisionShape3D2"},{"children":[8],"extensions":{},"mesh":4,"name":"Hole","translation":[-2.25848579406738,0,0]},{"children":[9],"extensions":{"OMI_physics_body":{"type":"static"}},"name":"StaticBody3D3"},{"extensions":{"OMI_collider":{"collider":2}},"name":"CollisionShape3D3"},{"children":[11],"extensions":{},"mesh":6,"name":"Grid","translation":[4.53168821334839,0,0]},{"children":[12],"extensions":{"OMI_physics_body":{"type":"static"}},"name":"StaticBody3D4"},{"extensions":{"OMI_collider":{"collider":3}},"name":"CollisionShape3D4"},{"children":[14],"extensions":{},"mesh":8,"name":"Flat_001","translation":[-4.82864618301392,0,0]},{"children":[15],"extensions":{"OMI_physics_body":{"type":"static"}},"name":"StaticBody3D5"},{"extensions":{"OMI_collider":{"collider":4}},"name":"CollisionShape3D5"}],"scene":0,"scenes":[{"nodes":[0]}]}