# Blender 4.0.2
# www.blender.org
mtllib swird.mtl
o Plane
v -0.000518 0.010075 0.005798
v -0.000000 -0.041706 0.043831
v -0.000518 0.087580 -0.063175
v -0.000000 -0.063509 -0.057604
v 0.003106 0.743978 -0.007591
v 0.003106 0.821484 -0.076564
v -0.024702 -0.193642 0.121007
v -0.024702 -0.207574 0.056188
v -0.027415 -0.193892 0.146648
v -0.027415 -0.215718 0.045106
v -0.000518 -0.344476 0.271819
v -0.000518 -0.385488 0.081011
v -0.000518 -0.495903 0.206072
v -0.000518 -0.509366 0.143440
v -0.000518 -0.000673 -0.044206
v -0.000000 -0.063509 -0.057604
v -0.000518 0.098328 -0.013172
v -0.000000 -0.041706 0.043831
v 0.003106 0.673914 -0.333562
v 0.003106 0.772915 -0.302527
v -0.024702 -0.233737 -0.065533
v -0.024702 -0.219805 -0.000714
v -0.027415 -0.244501 -0.088807
v -0.027415 -0.222676 0.012735
v -0.000518 -0.433218 -0.141048
v -0.000518 -0.392205 0.049760
v -0.000518 -0.544256 -0.018886
v -0.000518 -0.530794 0.043746
vn -1.0000 -0.0055 -0.0018
vn -1.0000 0.0050 0.0057
vn -0.9889 0.1450 -0.0312
vn -0.9009 0.4243 -0.0912
vn -0.9882 -0.1498 0.0322
vn -1.0000 -0.0000 -0.0000
vn 1.0000 0.0043 -0.0039
vn 1.0000 -0.0023 0.0072
vn 0.9889 -0.1450 0.0312
vn 0.9009 -0.4243 0.0912
vn 0.9882 0.1498 -0.0322
vn 1.0000 -0.0000 -0.0000
vt 0.000000 0.000000
vt 0.000000 1.000000
vt 1.000000 1.000000
vt 1.000000 0.000000
s 0
usemtl Material.001
f 1/1/1 3/2/1 4/3/1 2/4/1
f 1/1/2 5/1/2 6/2/2 3/2/2
f 4/3/3 8/3/3 7/4/3 2/4/3
f 15/1/7 17/2/7 18/3/7 16/4/7
f 15/1/8 19/1/8 20/2/8 17/2/8
f 18/3/9 22/3/9 21/4/9 16/4/9
usemtl Material.002
f 8/3/4 10/3/4 9/4/4 7/4/4
f 10/3/5 12/3/5 11/4/5 9/4/5
f 12/3/6 14/3/6 13/4/6 11/4/6
f 22/3/10 24/3/10 23/4/10 21/4/10
f 24/3/11 26/3/11 25/4/11 23/4/11
f 26/3/12 28/3/12 27/4/12 25/4/12
