# Blender 4.0.2
# www.blender.org
mtllib boat.mtl
o Cube
v 2.059274 0.407492 0.772498
v 1.407492 -0.407492 0.772498
v 2.059274 1.242279 1.587482
v 1.407492 0.427295 1.587482
v 0.592508 0.407492 0.772498
v 0.592508 -0.407492 0.772498
v 0.592508 1.242279 1.587482
v 0.592508 0.427295 1.587482
v 1.407492 -0.407492 0.029994
v 0.592508 -0.407492 0.029994
v 2.059274 0.407492 0.029994
v 0.592508 0.407492 0.029994
v 1.407492 -0.407492 -0.759969
v 0.592508 -0.407492 -0.759969
v 2.059274 0.407492 -0.759969
v 0.592508 0.407492 -0.759969
v 1.407492 0.427295 -1.612719
v 0.592508 0.427295 -1.612719
v 2.059274 1.242279 -1.612719
v 0.592508 1.242279 -1.612719
v -0.407492 -0.407492 0.772498
v -0.407492 0.427295 1.587482
v -0.407492 1.242279 1.587482
v -0.407492 0.407492 0.772498
v -0.407492 0.407492 0.029994
v -0.407492 -0.407492 0.029994
v -0.407492 0.407492 -0.759969
v -0.407492 -0.407492 -0.759969
v -0.407492 1.242279 -1.612719
v -0.407492 0.427295 -1.612719
v -1.407492 -0.407492 0.772498
v -1.407492 0.427295 1.587482
v -2.062496 1.242279 1.587482
v -1.868528 0.407492 0.772498
v -1.868528 0.407492 0.029994
v -1.407492 -0.407492 0.029994
v -1.868528 0.407492 -0.759969
v -1.407492 -0.407492 -0.759969
v -2.062496 1.242279 -1.612719
v -1.407492 0.427295 -1.612719
v -2.407492 -0.407492 0.772498
v -2.407492 0.427295 1.587482
v -2.407492 1.242279 1.587482
v -2.407492 0.407492 0.772498
v -2.407492 0.407492 0.029994
v -2.407492 -0.407492 0.029994
v -2.407492 0.407492 -0.759969
v -2.407492 -0.407492 -0.759969
v -2.407492 1.242279 -1.612719
v -2.407492 0.427295 -1.612719
v 2.470937 0.407492 0.772498
v 2.470937 -0.407492 0.772498
v 2.470937 1.242279 1.587482
v 2.470937 0.427295 1.587482
v 2.470937 0.407492 0.029994
v 2.470937 -0.407492 0.029994
v 2.470937 0.407492 -0.759969
v 2.470937 -0.407492 -0.759969
v 2.470937 1.242279 -1.612719
v 2.470937 0.427295 -1.612719
vn -0.0000 0.6986 -0.7155
vn -0.0000 -0.0000 1.0000
vn -0.0000 -1.0000 -0.0000
vn -0.0000 -0.6986 0.7155
vn -0.0000 1.0000 -0.0000
vn -0.0000 0.7146 0.6995
vn -0.0000 -0.0000 -1.0000
vn -0.0000 -0.7146 -0.6995
vn -1.0000 -0.0000 -0.0000
vn 1.0000 -0.0000 -0.0000
vn 0.9741 0.2263 -0.0000
vt 0.625000 0.500000
vt 0.875000 0.500000
vt 0.875000 0.750000
vt 0.625000 0.750000
vt 0.375000 0.750000
vt 0.625000 1.000000
vt 0.375000 1.000000
vt 0.125000 0.500000
vt 0.375000 0.500000
vt 0.125000 0.750000
vt 0.375000 0.250000
vt 0.625000 0.250000
vt 0.375000 0.000000
vt 0.625000 0.000000
vt 0.000000 0.000000
s 0
usemtl Material
f 1/1/1 5/2/1 7/3/1 3/4/1
f 4/5/2 3/4/2 7/6/2 8/7/2
f 10/8/3 6/8/3 21/8/3 26/8/3
f 6/8/4 2/9/4 4/5/4 8/10/4
f 2/9/3 9/9/3 56/9/3 52/9/3
f 9/9/3 13/9/3 58/9/3 56/9/3
f 12/2/5 11/1/5 15/1/5 16/2/5
f 16/2/6 20/2/6 29/2/6 27/2/6
f 2/9/3 6/8/3 10/8/3 9/9/3
f 5/2/5 1/1/5 11/1/5 12/2/5
f 12/2/5 16/2/5 27/2/5 25/2/5
f 17/9/7 19/1/7 59/1/7 60/9/7
f 5/2/5 12/2/5 25/2/5 24/2/5
f 9/9/3 10/8/3 14/8/3 13/9/3
f 18/11/7 20/12/7 19/1/7 17/9/7
f 13/9/8 14/8/8 18/8/8 17/9/8
f 16/2/6 15/1/6 19/1/6 20/2/6
f 19/1/8 59/1/8 57/1/8 15/1/8
f 29/12/7 30/11/7 40/11/7 39/12/7
f 23/3/1 24/2/1 34/2/1 33/3/1
f 26/8/3 21/8/3 31/8/3 36/8/3
f 28/8/3 26/8/3 36/8/3 38/8/3
f 7/3/1 5/2/1 24/2/1 23/3/1
f 18/8/8 14/8/8 28/8/8 30/8/8
f 20/12/7 18/11/7 30/11/7 29/12/7
f 8/7/2 7/6/2 23/6/2 22/7/2
f 14/8/3 10/8/3 26/8/3 28/8/3
f 6/8/4 8/10/4 22/10/4 21/8/4
f 31/8/4 32/10/4 42/10/4 41/8/4
f 39/12/7 40/11/7 50/11/7 49/12/7
f 33/3/4 43/3/4 44/2/4 34/2/4
f 36/8/3 31/8/3 41/8/3 46/8/3
f 21/8/4 22/10/4 32/10/4 31/8/4
f 27/2/6 29/2/6 39/2/6 37/2/6
f 22/7/2 23/6/2 33/6/2 32/7/2
f 25/2/5 27/2/5 37/2/5 35/2/5
f 24/2/5 25/2/5 35/2/5 34/2/5
f 30/8/8 28/8/8 38/8/8 40/8/8
f 42/13/9 43/14/9 44/12/9 41/11/9
f 41/11/9 44/12/9 45/12/9 46/11/9
f 48/11/9 47/12/9 49/12/9 50/11/9
f 46/11/9 45/12/9 47/12/9 48/11/9
f 37/2/8 47/2/8 49/2/8 39/2/8
f 32/7/2 33/6/2 43/6/2 42/7/2
f 35/2/3 45/2/3 47/2/3 37/2/3
f 34/2/3 44/2/3 45/2/3 35/2/3
f 40/8/8 38/8/8 48/8/8 50/8/8
f 38/8/3 36/8/3 46/8/3 48/8/3
f 52/9/10 51/1/10 53/4/10 54/5/10
f 51/1/10 52/9/10 56/9/10 55/1/10
f 55/1/10 56/9/10 58/9/10 57/1/10
f 57/1/10 58/9/10 60/9/10 59/1/10
f 11/1/3 55/1/3 51/1/3 1/1/3
f 13/9/8 17/9/8 60/9/8 58/9/8
f 1/1/4 51/1/4 53/4/4 3/4/4
f 15/1/3 57/1/3 55/1/3 11/1/3
f 3/4/2 4/5/2 54/5/2 53/4/2
f 4/5/4 2/9/4 52/9/4 54/5/4
f 49/15/9 47/15/9 45/15/9 44/15/9 43/15/9
f 55/15/10 57/15/10 59/15/10 53/15/10 51/15/10
f 1/15/9 3/15/9 19/15/9 15/15/9 11/15/9
f 53/15/5 59/15/5 19/15/5 3/15/5
f 33/15/11 34/15/11 35/15/11 37/15/11 39/15/11
f 43/15/5 33/15/5 39/15/5 49/15/5
