# Blender 4.0.2
# www.blender.org
mtllib boat.mtl
o Cube
v 0.617782 0.033052 0.231750
v 0.422248 -0.333859 0.231750
v 0.617782 0.372684 0.476245
v 0.422248 0.128189 0.476245
v 0.177752 0.033052 0.231750
v 0.177752 -0.333859 0.231750
v 0.177752 0.372684 0.476245
v 0.177752 0.128189 0.476245
v 0.422248 -0.333859 0.008998
v 0.177752 -0.333859 0.008998
v 0.617782 0.033052 0.008998
v 0.177752 0.033052 0.008998
v 0.422248 -0.333859 -0.227991
v 0.177752 -0.333859 -0.227991
v 0.617782 0.033052 -0.227991
v 0.177752 0.033052 -0.227991
v 0.422248 0.128189 -0.483816
v 0.177752 0.128189 -0.483816
v 0.617782 0.372684 -0.483816
v 0.177752 0.372684 -0.483816
v -0.122248 -0.333859 0.231750
v -0.122248 0.128189 0.476245
v -0.122248 0.372684 0.476245
v -0.122248 0.033052 0.231750
v -0.122248 0.033052 0.008998
v -0.122248 -0.333859 0.008998
v -0.122248 0.033052 -0.227991
v -0.122248 -0.333859 -0.227991
v -0.122248 0.372684 -0.483816
v -0.122248 0.128189 -0.483816
v -0.422248 -0.333859 0.231750
v -0.422248 0.128189 0.476245
v -0.618749 0.372684 0.476245
v -0.560558 0.033052 0.231750
v -0.560558 0.033052 0.008998
v -0.422248 -0.333859 0.008998
v -0.560558 0.033052 -0.227991
v -0.422248 -0.333859 -0.227991
v -0.618749 0.372684 -0.483816
v -0.422248 0.128189 -0.483816
v -0.722248 -0.333859 0.231750
v -0.722248 0.128189 0.476245
v -0.722248 0.372684 0.476245
v -0.722248 0.122248 0.231750
v -0.722248 0.122248 0.008998
v -0.722248 -0.333859 0.008998
v -0.722248 0.122248 -0.227991
v -0.722248 -0.333859 -0.227991
v -0.722248 0.372684 -0.483816
v -0.722248 0.128189 -0.483816
v 0.741281 0.122248 0.231750
v 0.741281 -0.333859 0.231750
v 0.741281 0.372684 0.476245
v 0.741281 0.128189 0.476245
v 0.741281 0.122248 0.008998
v 0.741281 -0.333859 0.008998
v 0.741281 0.122248 -0.227991
v 0.741281 -0.333859 -0.227991
v 0.741281 0.372684 -0.483816
v 0.741281 0.128189 -0.483816
vn -0.0000 0.5842 -0.8116
vn -0.0000 -0.0000 1.0000
vn -0.0000 -1.0000 -0.0000
vn -0.0000 -0.4677 0.8839
vn -0.0000 1.0000 -0.0000
vn -0.0000 0.6017 0.7988
vn -0.0000 -0.0000 -1.0000
vn -0.0000 -0.4844 -0.8749
vn 0.2302 -0.6375 -0.7352
vn -0.2138 -0.6357 0.7417
vn -1.0000 -0.0000 -0.0000
vn -0.2191 -0.6514 -0.7264
vn -0.4830 -0.8756 -0.0000
vn 1.0000 -0.0000 -0.0000
vn 0.5855 -0.8107 -0.0000
vn 0.2245 -0.6218 0.7503
vn 0.9856 0.1689 -0.0000
vt 0.625000 0.500000
vt 0.875000 0.500000
vt 0.875000 0.750000
vt 0.625000 0.750000
vt 0.375000 0.750000
vt 0.625000 1.000000
vt 0.375000 1.000000
vt 0.125000 0.500000
vt 0.375000 0.500000
vt 0.125000 0.750000
vt 0.375000 0.250000
vt 0.625000 0.250000
vt 0.375000 0.000000
vt 0.625000 0.000000
vt 0.000000 0.000000
s 0
usemtl Material
f 1/1/1 5/2/1 7/3/1 3/4/1
f 4/5/2 3/4/2 7/6/2 8/7/2
f 10/8/3 6/8/3 21/8/3 26/8/3
f 6/8/4 2/9/4 4/5/4 8/10/4
f 2/9/3 9/9/3 56/9/3 52/9/3
f 9/9/3 13/9/3 58/9/3 56/9/3
f 12/2/5 11/1/5 15/1/5 16/2/5
f 16/2/6 20/2/6 29/2/6 27/2/6
f 2/9/3 6/8/3 10/8/3 9/9/3
f 5/2/5 1/1/5 11/1/5 12/2/5
f 12/2/5 16/2/5 27/2/5 25/2/5
f 17/9/7 19/1/7 59/1/7 60/9/7
f 5/2/5 12/2/5 25/2/5 24/2/5
f 9/9/3 10/8/3 14/8/3 13/9/3
f 18/11/7 20/12/7 19/1/7 17/9/7
f 13/9/8 14/8/8 18/8/8 17/9/8
f 16/2/6 15/1/6 19/1/6 20/2/6
f 19/1/9 59/1/9 57/1/9 15/1/9
f 29/12/7 30/11/7 40/11/7 39/12/7
f 23/3/1 24/2/1 34/2/1 33/3/1
f 26/8/3 21/8/3 31/8/3 36/8/3
f 28/8/3 26/8/3 36/8/3 38/8/3
f 7/3/1 5/2/1 24/2/1 23/3/1
f 18/8/8 14/8/8 28/8/8 30/8/8
f 20/12/7 18/11/7 30/11/7 29/12/7
f 8/7/2 7/6/2 23/6/2 22/7/2
f 14/8/3 10/8/3 26/8/3 28/8/3
f 6/8/4 8/10/4 22/10/4 21/8/4
f 31/8/4 32/10/4 42/10/4 41/8/4
f 39/12/7 40/11/7 50/11/7 49/12/7
f 33/3/10 43/3/10 44/2/10 34/2/10
f 36/8/3 31/8/3 41/8/3 46/8/3
f 21/8/4 22/10/4 32/10/4 31/8/4
f 27/2/6 29/2/6 39/2/6 37/2/6
f 22/7/2 23/6/2 33/6/2 32/7/2
f 25/2/5 27/2/5 37/2/5 35/2/5
f 24/2/5 25/2/5 35/2/5 34/2/5
f 30/8/8 28/8/8 38/8/8 40/8/8
f 42/13/11 43/14/11 44/12/11 41/11/11
f 41/11/11 44/12/11 45/12/11 46/11/11
f 48/11/11 47/12/11 49/12/11 50/11/11
f 46/11/11 45/12/11 47/12/11 48/11/11
f 37/2/12 47/2/12 49/2/12 39/2/12
f 32/7/2 33/6/2 43/6/2 42/7/2
f 35/2/13 45/2/13 47/2/13 37/2/13
f 34/2/13 44/2/13 45/2/13 35/2/13
f 40/8/8 38/8/8 48/8/8 50/8/8
f 38/8/3 36/8/3 46/8/3 48/8/3
f 52/9/14 51/1/14 53/4/14 54/5/14
f 51/1/14 52/9/14 56/9/14 55/1/14
f 55/1/14 56/9/14 58/9/14 57/1/14
f 57/1/14 58/9/14 60/9/14 59/1/14
f 11/1/15 55/1/15 51/1/15 1/1/15
f 13/9/8 17/9/8 60/9/8 58/9/8
f 1/1/16 51/1/16 53/4/16 3/4/16
f 15/1/15 57/1/15 55/1/15 11/1/15
f 3/4/2 4/5/2 54/5/2 53/4/2
f 4/5/4 2/9/4 52/9/4 54/5/4
f 49/15/11 47/15/11 45/15/11 44/15/11 43/15/11
f 55/15/14 57/15/14 59/15/14 53/15/14 51/15/14
f 1/15/11 3/15/11 19/15/11 15/15/11 11/15/11
f 53/15/5 59/15/5 19/15/5 3/15/5
f 33/15/17 34/15/17 35/15/17 37/15/17 39/15/17
f 43/15/5 33/15/5 39/15/5 49/15/5
