# Blender 4.0.2
# www.blender.org
mtllib crate.mtl
o Cube
v 0.500000 0.139093 -0.500000
v 0.500000 -0.180510 -0.500000
v 0.500000 0.139093 0.500000
v 0.500000 -0.180510 0.500000
v -0.500000 0.139093 -0.500000
v -0.500000 -0.180510 -0.500000
v -0.500000 0.139093 0.500000
v -0.500000 -0.180510 0.500000
v -0.224944 -0.092601 0.685906
v -0.224944 0.051184 0.685906
v 0.224944 0.051184 0.685906
v 0.224944 -0.092601 0.685906
v -0.151554 -0.069146 0.690068
v -0.151554 0.027728 0.690068
v 0.151554 0.027728 0.690068
v 0.151554 -0.069146 0.690068
v -0.151554 -0.069146 0.723202
v -0.151554 0.027728 0.723202
v 0.151554 0.027728 0.723202
v 0.151554 -0.069146 0.723202
v -0.138535 -0.064985 0.723202
v -0.138535 0.023567 0.723202
v 0.138535 0.023567 0.723202
v 0.138535 -0.064985 0.723202
v -0.138535 -0.064985 0.652212
v -0.138535 0.023567 0.652212
v 0.138535 0.023567 0.652212
v 0.138535 -0.064985 0.652212
v -0.151554 -0.069146 0.851004
v -0.151554 0.027728 0.851004
v 0.151554 0.027728 0.851004
v 0.151554 -0.069146 0.851004
v -0.138535 -0.064985 0.851004
v -0.138535 0.023567 0.851004
v 0.138535 0.023567 0.851004
v 0.138535 -0.064985 0.851004
v -0.151554 -0.069146 0.873650
v -0.151554 0.027728 0.873650
v 0.151554 0.027728 0.873650
v 0.151554 -0.069146 0.873650
v -0.138535 -0.064985 0.873650
v -0.138535 0.023567 0.873650
v 0.138535 0.023567 0.873650
v 0.138535 -0.064985 0.873650
v 0.447164 0.215480 0.447164
v -0.447164 0.215480 0.447164
v 0.447164 0.215480 -0.447164
v -0.447164 0.215480 -0.447164
v 0.329168 0.327072 0.329168
v -0.329168 0.327072 0.329168
v 0.329168 0.327072 -0.329168
v -0.329168 0.327072 -0.329168
v 0.500000 0.059192 -0.500000
v 0.500000 -0.020709 -0.500000
v 0.500000 -0.100609 -0.500000
v -0.500000 -0.100609 0.500000
v -0.500000 -0.020709 0.500000
v -0.500000 0.059192 0.500000
v 0.500000 0.059192 0.500000
v 0.500000 -0.020709 0.500000
v 0.500000 -0.100609 0.500000
v -0.500000 0.059192 -0.500000
v -0.500000 -0.020709 -0.500000
v -0.500000 -0.100609 -0.500000
v -0.224944 -0.056655 0.685906
v -0.224944 -0.020709 0.685906
v -0.224944 0.015238 0.685906
v 0.224944 0.015238 0.685906
v 0.224944 -0.020709 0.685906
v 0.224944 -0.056655 0.685906
v -0.151554 -0.044927 0.690068
v -0.151554 -0.020709 0.690068
v -0.151554 0.003510 0.690068
v 0.151554 0.003510 0.690068
v 0.151554 -0.020709 0.690068
v 0.151554 -0.044927 0.690068
v -0.151554 -0.044927 0.723202
v -0.151554 -0.020709 0.723202
v -0.151554 0.003510 0.723202
v 0.151554 0.003510 0.723202
v 0.151554 -0.020709 0.723202
v 0.151554 -0.044927 0.723202
v -0.151554 -0.044927 0.851004
v -0.151554 -0.020709 0.851004
v -0.151554 0.003510 0.851004
v 0.151554 0.003510 0.851004
v 0.151554 -0.020709 0.851004
v 0.151554 -0.044927 0.851004
v -0.151554 -0.044927 0.873650
v -0.151554 -0.020709 0.873650
v -0.151554 0.003510 0.873650
v 0.151554 0.003510 0.873650
v 0.151554 -0.020709 0.873650
v 0.151554 -0.044927 0.873650
v 0.500000 0.026418 -0.089817
v 0.500000 0.012065 -0.089817
v 0.500000 0.026418 0.089817
v 0.500000 0.012065 0.089817
v 0.515387 0.026418 -0.089817
v 0.515387 0.012065 -0.089817
v 0.515387 0.026418 0.089817
v 0.515387 0.012065 0.089817
v 0.500000 0.139093 0.500000
v 0.500000 -0.180510 0.500000
v 0.500000 0.139093 -0.500000
v 0.500000 -0.180510 -0.500000
v -0.500000 0.139093 0.500000
v -0.500000 -0.180510 0.500000
v -0.500000 0.139093 -0.500000
v -0.500000 -0.180510 -0.500000
v -0.224944 -0.092601 -0.685906
v -0.224944 0.051184 -0.685906
v 0.224944 0.051184 -0.685906
v 0.224944 -0.092601 -0.685906
v -0.151554 -0.069146 -0.690068
v -0.151554 0.027728 -0.690068
v 0.151554 0.027728 -0.690068
v 0.151554 -0.069146 -0.690068
v -0.151554 -0.069146 -0.723202
v -0.151554 0.027728 -0.723202
v 0.151554 0.027728 -0.723202
v 0.151554 -0.069146 -0.723202
v -0.138535 -0.064985 -0.723202
v -0.138535 0.023567 -0.723202
v 0.138535 0.023567 -0.723202
v 0.138535 -0.064985 -0.723202
v -0.138535 -0.064985 -0.652212
v -0.138535 0.023567 -0.652212
v 0.138535 0.023567 -0.652212
v 0.138535 -0.064985 -0.652212
v -0.151554 -0.069146 -0.851004
v -0.151554 0.027728 -0.851004
v 0.151554 0.027728 -0.851004
v 0.151554 -0.069146 -0.851004
v -0.138535 -0.064985 -0.851004
v -0.138535 0.023567 -0.851004
v 0.138535 0.023567 -0.851004
v 0.138535 -0.064985 -0.851004
v -0.151554 -0.069146 -0.873650
v -0.151554 0.027728 -0.873650
v 0.151554 0.027728 -0.873650
v 0.151554 -0.069146 -0.873650
v -0.138535 -0.064985 -0.873650
v -0.138535 0.023567 -0.873650
v 0.138535 0.023567 -0.873650
v 0.138535 -0.064985 -0.873650
v 0.447164 0.215480 -0.447164
v -0.447164 0.215480 -0.447164
v 0.447164 0.215480 0.447164
v -0.447164 0.215480 0.447164
v 0.329168 0.327072 -0.329168
v -0.329168 0.327072 -0.329168
v 0.329168 0.327072 0.329168
v -0.329168 0.327072 0.329168
v 0.500000 0.059192 0.500000
v 0.500000 -0.020709 0.500000
v 0.500000 -0.100609 0.500000
v -0.500000 -0.100609 -0.500000
v -0.500000 -0.020709 -0.500000
v -0.500000 0.059192 -0.500000
v 0.500000 0.059192 -0.500000
v 0.500000 -0.020709 -0.500000
v 0.500000 -0.100609 -0.500000
v -0.500000 0.059192 0.500000
v -0.500000 -0.020709 0.500000
v -0.500000 -0.100609 0.500000
v -0.224944 -0.056655 -0.685906
v -0.224944 -0.020709 -0.685906
v -0.224944 0.015238 -0.685906
v 0.224944 0.015238 -0.685906
v 0.224944 -0.020709 -0.685906
v 0.224944 -0.056655 -0.685906
v -0.151554 -0.044927 -0.690068
v -0.151554 -0.020709 -0.690068
v -0.151554 0.003510 -0.690068
v 0.151554 0.003510 -0.690068
v 0.151554 -0.020709 -0.690068
v 0.151554 -0.044927 -0.690068
v -0.151554 -0.044927 -0.723202
v -0.151554 -0.020709 -0.723202
v -0.151554 0.003510 -0.723202
v 0.151554 0.003510 -0.723202
v 0.151554 -0.020709 -0.723202
v 0.151554 -0.044927 -0.723202
v -0.151554 -0.044927 -0.851004
v -0.151554 -0.020709 -0.851004
v -0.151554 0.003510 -0.851004
v 0.151554 0.003510 -0.851004
v 0.151554 -0.020709 -0.851004
v 0.151554 -0.044927 -0.851004
v -0.151554 -0.044927 -0.873650
v -0.151554 -0.020709 -0.873650
v -0.151554 0.003510 -0.873650
v 0.151554 0.003510 -0.873650
v 0.151554 -0.020709 -0.873650
v 0.151554 -0.044927 -0.873650
v 0.500000 0.026418 0.089817
v 0.500000 0.012065 0.089817
v 0.500000 0.026418 -0.089817
v 0.500000 0.012065 -0.089817
v 0.515387 0.026418 0.089817
v 0.515387 0.012065 0.089817
v 0.515387 0.026418 -0.089817
v 0.515387 0.012065 -0.089817
vn -0.0000 0.5689 -0.8224
vn -0.0000 0.6208 -0.7840
vn -0.5600 -0.0000 0.8285
vn -1.0000 -0.0000 -0.0000
vn -0.0000 -1.0000 -0.0000
vn -0.0000 -0.9920 0.1266
vn 1.0000 -0.0000 -0.0000
vn -0.0000 -0.0000 -1.0000
vn -0.0566 -0.0000 0.9984
vn -0.0227 -0.1054 0.9942
vn -0.0000 -0.9040 0.4275
vn -0.0000 0.9040 0.4275
vn 0.5600 -0.0000 0.8285
vn 0.0455 -0.0349 0.9984
vn -0.0455 -0.0349 0.9984
vn 0.0566 -0.0000 0.9984
vn 0.0227 0.1054 0.9942
vn -0.0455 0.0349 0.9984
vn 0.0455 0.0349 0.9984
vn -0.0000 -0.0000 1.0000
vn -0.0000 1.0000 -0.0000
vn -0.3044 0.9525 -0.0000
vn -0.3044 -0.9525 -0.0000
vn 0.3044 0.9525 -0.0000
vn 0.3044 -0.9525 -0.0000
vn -0.0000 0.7265 -0.6871
vn -0.0000 0.5689 0.8224
vn -0.0000 0.6208 0.7840
vn -0.8224 0.5689 -0.0000
vn -0.7840 0.6208 -0.0000
vn 0.8224 0.5689 -0.0000
vn 0.7840 0.6208 -0.0000
vn 0.6871 0.7265 -0.0000
vn -0.6871 0.7265 -0.0000
vn -0.0000 0.7265 0.6871
vn 0.0227 -0.1054 0.9942
vn -0.0227 0.1054 0.9942
vn -0.5600 -0.0000 -0.8285
vn -0.0000 -0.9920 -0.1266
vn -0.0566 -0.0000 -0.9984
vn -0.0227 -0.1054 -0.9942
vn -0.0455 -0.0349 -0.9984
vn -0.0000 -0.9040 -0.4275
vn -0.0000 0.9040 -0.4275
vn 0.5600 -0.0000 -0.8285
vn 0.0455 -0.0349 -0.9984
vn 0.0566 -0.0000 -0.9984
vn 0.0227 0.1054 -0.9942
vn 0.0455 0.0349 -0.9984
vn -0.0455 0.0349 -0.9984
vn 0.0227 -0.1054 -0.9942
vn -0.0227 0.1054 -0.9942
vt 0.625000 0.250000
vt 0.625000 0.500000
vt 0.437500 0.000000
vt 0.375000 0.000000
vt 0.625000 0.000000
vt 0.562500 0.250000
vt 0.562500 0.000000
vt 0.375000 0.500000
vt 0.125000 0.750000
vt 0.125000 0.500000
vt 0.562500 0.750000
vt 0.562500 0.500000
vt 0.375000 0.750000
vt 0.875000 0.750000
vt 0.625000 0.750000
vt 0.375000 1.000000
vt 0.437500 0.000000
vt 0.500000 0.000000
vt 0.562500 0.750000
vt 0.500000 0.750000
vt 0.875000 0.500000
vt 0.437500 0.750000
vt 0.500000 0.750000
vt 0.437500 0.750000
vt 0.500000 0.750000
vt 0.437500 0.750000
vt 0.562500 0.000000
vt 0.437500 0.250000
vt 0.375000 0.250000
vt 0.500000 0.250000
vt 0.437500 0.500000
vt 0.500000 0.500000
vt 0.625000 1.000000
s 1
usemtl Material
f 56/3/3 9/4/3 65/3/3
f 2/8/5 8/9/6 6/10/5
f 65/3/9 13/4/10 71/3/9
f 4/13/6 9/9/11 8/9/6
f 12/13/14 13/9/10 9/9/15
f 24/13/21 25/9/21 21/9/21
f 27/15/20 25/16/20 28/13/20
f 23/15/4 28/13/4 24/13/4
f 22/14/5 27/15/5 23/15/5
f 21/4/7 26/5/7 22/5/7
f 70/26/16 16/13/36 12/13/14
f 69/25/16 76/22/16 70/26/16
f 69/25/16 74/11/16 75/25/16
f 61/22/13 12/13/13 4/13/13
f 60/23/13 70/26/13 61/22/13
f 60/23/13 68/11/13 69/25/13
f 66/18/9 73/7/9 67/27/9
f 66/18/9 71/3/9 72/18/9
f 64/28/8 2/8/8 6/29/8
f 63/30/8 55/31/8 64/28/8
f 62/6/8 54/32/8 63/30/8
f 55/31/7 4/13/7 2/8/7
f 54/32/7 61/22/7 55/31/7
f 60/23/7 97/11/7 59/11/7
f 56/3/4 6/29/4 8/4/4
f 57/18/4 64/28/4 56/3/4
f 58/7/4 63/30/4 57/18/4
f 57/18/3 67/27/3 58/7/3
f 57/18/3 65/3/3 66/18/3
f 97/11/21 99/12/21 95/12/21
f 54/32/7 98/23/7 60/23/7
f 53/12/7 96/32/7 54/32/7
f 99/12/7 102/23/7 100/32/7
f 98/23/20 101/11/20 97/11/20
f 96/32/5 102/23/5 98/23/5
f 95/12/8 100/32/8 96/32/8
f 158/3/38 111/4/38 110/4/38
f 110/9/39 104/8/5 108/10/5
f 167/3/40 115/4/41 111/4/42
f 111/9/43 106/13/39 110/9/39
f 115/9/41 114/13/46 111/9/42
f 127/9/21 126/13/21 123/9/21
f 127/16/8 129/15/8 130/13/8
f 130/13/4 125/15/4 126/13/4
f 129/15/5 124/14/5 125/15/5
f 128/5/7 123/4/7 124/5/7
f 118/13/51 172/26/47 114/13/46
f 178/22/47 171/25/47 172/26/47
f 171/25/47 176/11/47 170/11/47
f 114/13/45 163/22/45 106/13/45
f 172/26/45 162/23/45 163/22/45
f 162/23/45 170/11/45 161/11/45
f 175/7/40 168/18/40 169/27/40
f 168/18/40 173/3/40 167/3/40
f 104/8/20 166/28/20 108/29/20
f 157/31/20 165/30/20 166/28/20
f 156/32/20 164/6/20 165/30/20
f 106/13/7 157/31/7 104/8/7
f 163/22/7 156/32/7 157/31/7
f 199/11/7 162/23/7 161/11/7
f 108/29/4 158/3/4 110/4/4
f 166/28/4 159/18/4 158/3/4
f 165/30/4 160/7/4 159/18/4
f 169/27/38 159/18/38 160/7/38
f 159/18/38 167/3/38 158/3/38
f 201/12/21 199/11/21 197/12/21
f 200/23/7 156/32/7 162/23/7
f 198/32/7 155/12/7 156/32/7
f 204/23/7 201/12/7 202/32/7
f 203/11/8 200/23/8 199/11/8
f 204/23/5 198/32/5 200/23/5
f 202/32/20 197/12/20 198/32/20
f 56/3/3 8/4/3 9/4/3
f 2/8/5 4/13/6 8/9/6
f 65/3/9 9/4/15 13/4/10
f 4/13/6 12/13/11 9/9/11
f 12/13/14 16/13/36 13/9/10
f 24/13/21 28/13/21 25/9/21
f 27/15/20 26/33/20 25/16/20
f 23/15/4 27/15/4 28/13/4
f 22/14/5 26/14/5 27/15/5
f 21/4/7 25/4/7 26/5/7
f 70/26/16 76/22/16 16/13/36
f 69/25/16 75/25/16 76/22/16
f 69/25/16 68/11/16 74/11/16
f 61/22/13 70/26/13 12/13/13
f 60/23/13 69/25/13 70/26/13
f 60/23/13 59/11/13 68/11/13
f 66/18/9 72/18/9 73/7/9
f 66/18/9 65/3/9 71/3/9
f 64/28/8 55/31/8 2/8/8
f 63/30/8 54/32/8 55/31/8
f 62/6/8 53/12/8 54/32/8
f 55/31/7 61/22/7 4/13/7
f 54/32/7 60/23/7 61/22/7
f 60/23/7 98/23/7 97/11/7
f 56/3/4 64/28/4 6/29/4
f 57/18/4 63/30/4 64/28/4
f 58/7/4 62/6/4 63/30/4
f 57/18/3 66/18/3 67/27/3
f 57/18/3 56/3/3 65/3/3
f 97/11/21 101/11/21 99/12/21
f 54/32/7 96/32/7 98/23/7
f 53/12/7 95/12/7 96/32/7
f 99/12/7 101/11/7 102/23/7
f 98/23/20 102/23/20 101/11/20
f 96/32/5 100/32/5 102/23/5
f 95/12/8 99/12/8 100/32/8
f 158/3/38 167/3/38 111/4/38
f 110/9/39 106/13/39 104/8/5
f 167/3/40 173/3/40 115/4/41
f 111/9/43 114/13/43 106/13/39
f 115/9/41 118/13/51 114/13/46
f 127/9/21 130/13/21 126/13/21
f 127/16/8 128/33/8 129/15/8
f 130/13/4 129/15/4 125/15/4
f 129/15/5 128/14/5 124/14/5
f 128/5/7 127/4/7 123/4/7
f 118/13/51 178/22/47 172/26/47
f 178/22/47 177/25/47 171/25/47
f 171/25/47 177/25/47 176/11/47
f 114/13/45 172/26/45 163/22/45
f 172/26/45 171/25/45 162/23/45
f 162/23/45 171/25/45 170/11/45
f 175/7/40 174/18/40 168/18/40
f 168/18/40 174/18/40 173/3/40
f 104/8/20 157/31/20 166/28/20
f 157/31/20 156/32/20 165/30/20
f 156/32/20 155/12/20 164/6/20
f 106/13/7 163/22/7 157/31/7
f 163/22/7 162/23/7 156/32/7
f 199/11/7 200/23/7 162/23/7
f 108/29/4 166/28/4 158/3/4
f 166/28/4 165/30/4 159/18/4
f 165/30/4 164/6/4 160/7/4
f 169/27/38 168/18/38 159/18/38
f 159/18/38 168/18/38 167/3/38
f 201/12/21 203/11/21 199/11/21
f 200/23/7 198/32/7 156/32/7
f 198/32/7 197/12/7 155/12/7
f 204/23/7 203/11/7 201/12/7
f 203/11/8 204/23/8 200/23/8
f 204/23/5 202/32/5 198/32/5
f 202/32/20 201/12/20 197/12/20
usemtl Material.001
f 5/1/1 47/2/2 1/2/1
f 7/5/4 62/6/4 58/7/4
f 1/2/7 59/11/7 53/12/7
f 5/1/8 53/12/8 62/6/8
f 7/14/12 11/15/12 3/15/12
f 59/11/13 11/15/13 68/11/13
f 16/13/5 17/9/5 13/9/5
f 68/11/16 15/15/17 74/11/16
f 10/14/18 15/15/17 11/15/19
f 18/14/20 23/15/20 19/15/20
f 15/15/7 80/11/7 74/11/7
f 14/14/21 19/15/21 15/15/21
f 13/4/4 77/3/4 71/3/4
f 23/15/22 31/15/22 19/15/22
f 20/13/20 21/9/20 17/9/20
f 20/13/23 36/13/23 24/13/23
f 34/5/4 33/4/4 41/4/4
f 30/14/24 42/14/24 34/14/24
f 17/4/4 83/3/4 77/3/4
f 24/13/4 35/15/4 23/15/4
f 21/9/25 29/9/25 17/9/25
f 18/14/24 34/14/24 22/14/24
f 19/15/7 86/11/7 80/11/7
f 22/5/7 33/4/7 21/4/7
f 89/17/20 41/4/20 90/18/20
f 92/19/20 43/15/20 93/20/20
f 29/4/4 89/17/4 83/3/4
f 32/13/23 44/13/23 36/13/23
f 35/15/22 39/15/22 31/15/22
f 36/13/7 35/15/7 43/15/7
f 31/15/7 92/19/7 86/11/7
f 33/9/25 37/9/25 29/9/25
f 41/4/20 43/15/20 42/5/20
f 36/13/5 41/4/5 33/4/5
f 34/5/21 43/15/21 35/15/21
f 34/5/8 36/13/8 33/4/8
f 48/1/2 51/2/26 47/2/2
f 3/15/27 46/14/28 7/14/27
f 7/5/29 48/1/30 5/1/29
f 1/2/31 45/15/32 3/15/31
f 52/21/21 49/15/21 51/2/21
f 47/2/32 49/15/33 45/15/32
f 46/5/30 52/1/34 48/1/30
f 45/15/28 50/14/35 46/14/28
f 88/22/7 40/13/7 32/13/7
f 87/23/7 94/24/7 88/22/7
f 86/11/7 93/20/7 87/23/7
f 85/7/4 38/5/4 30/5/4
f 84/18/4 91/7/4 85/7/4
f 83/3/4 90/18/4 84/18/4
f 82/22/7 32/13/7 20/13/7
f 81/23/7 88/22/7 82/22/7
f 80/11/7 87/23/7 81/23/7
f 79/7/4 30/5/4 18/5/4
f 78/18/4 85/7/4 79/7/4
f 77/3/4 84/18/4 78/18/4
f 73/7/4 18/5/4 14/5/4
f 72/18/4 79/7/4 73/7/4
f 71/3/4 78/18/4 72/18/4
f 76/22/7 20/13/7 16/13/7
f 75/25/7 82/22/7 76/22/7
f 74/11/7 81/23/7 75/25/7
f 67/27/9 14/5/37 10/5/18
f 58/7/3 10/5/3 7/5/3
f 149/2/28 107/1/27 103/2/27
f 164/6/4 109/5/4 160/7/4
f 161/11/7 103/2/7 155/12/7
f 155/12/20 107/1/20 164/6/20
f 113/15/44 109/14/44 105/15/44
f 161/11/45 113/15/45 105/15/45
f 119/9/5 118/13/5 115/9/5
f 170/11/47 117/15/48 113/15/49
f 117/15/48 112/14/50 113/15/49
f 125/15/8 120/14/8 121/15/8
f 182/11/7 117/15/7 176/11/7
f 121/15/21 116/14/21 117/15/21
f 179/3/4 115/4/4 173/3/4
f 133/15/22 125/15/22 121/15/22
f 123/9/8 122/13/8 119/9/8
f 138/13/23 122/13/23 126/13/23
f 143/4/4 135/4/4 136/5/4
f 144/14/24 132/14/24 136/14/24
f 185/3/4 119/4/4 179/3/4
f 137/15/4 126/13/4 125/15/4
f 131/9/25 123/9/25 119/9/25
f 136/14/24 120/14/24 124/14/24
f 188/11/7 121/15/7 182/11/7
f 135/4/7 124/5/7 123/4/7
f 192/18/8 193/7/8 144/5/8
f 195/20/8 196/24/8 146/13/8
f 191/17/4 131/4/4 185/3/4
f 146/13/23 134/13/23 138/13/23
f 141/15/22 137/15/22 133/15/22
f 145/15/7 137/15/7 138/13/7
f 194/19/7 133/15/7 188/11/7
f 139/9/25 135/9/25 131/9/25
f 145/15/8 143/4/8 144/5/8
f 143/4/5 138/13/5 135/4/5
f 145/15/21 136/5/21 137/15/21
f 138/13/20 136/5/20 135/4/20
f 153/2/35 150/1/28 149/2/28
f 148/14/2 105/15/1 109/14/1
f 150/1/30 109/5/29 107/1/29
f 147/15/32 103/2/31 105/15/31
f 151/15/21 154/21/21 153/2/21
f 151/15/33 149/2/32 147/15/32
f 154/1/34 148/5/30 150/1/30
f 152/14/26 147/15/2 148/14/2
f 142/13/7 190/22/7 134/13/7
f 196/24/7 189/23/7 190/22/7
f 195/20/7 188/11/7 189/23/7
f 140/5/4 187/7/4 132/5/4
f 193/7/4 186/18/4 187/7/4
f 192/18/4 185/3/4 186/18/4
f 134/13/7 184/22/7 122/13/7
f 190/22/7 183/23/7 184/22/7
f 189/23/7 182/11/7 183/23/7
f 132/5/4 181/7/4 120/5/4
f 187/7/4 180/18/4 181/7/4
f 186/18/4 179/3/4 180/18/4
f 120/5/4 175/7/4 116/5/4
f 181/7/4 174/18/4 175/7/4
f 180/18/4 173/3/4 174/18/4
f 122/13/7 178/22/7 118/13/7
f 184/22/7 177/25/7 178/22/7
f 183/23/7 176/11/7 177/25/7
f 116/5/52 169/27/40 112/5/50
f 112/5/38 160/7/38 109/5/38
f 197/12/7 161/11/7 155/12/7
f 5/1/1 48/1/2 47/2/2
f 7/5/4 5/1/4 62/6/4
f 1/2/7 3/15/7 59/11/7
f 5/1/8 1/2/8 53/12/8
f 7/14/12 10/14/12 11/15/12
f 59/11/13 3/15/13 11/15/13
f 16/13/5 20/13/5 17/9/5
f 68/11/16 11/15/19 15/15/17
f 10/14/18 14/14/37 15/15/17
f 18/14/20 22/14/20 23/15/20
f 15/15/7 19/15/7 80/11/7
f 14/14/21 18/14/21 19/15/21
f 13/4/4 17/4/4 77/3/4
f 23/15/22 35/15/22 31/15/22
f 20/13/20 24/13/20 21/9/20
f 20/13/23 32/13/23 36/13/23
f 34/5/4 41/4/4 42/5/4
f 30/14/24 38/14/24 42/14/24
f 17/4/4 29/4/4 83/3/4
f 24/13/4 36/13/4 35/15/4
f 21/9/25 33/9/25 29/9/25
f 18/14/24 30/14/24 34/14/24
f 19/15/7 31/15/7 86/11/7
f 22/5/7 34/5/7 33/4/7
f 42/5/20 38/5/20 91/7/20
f 42/5/20 91/7/20 90/18/20
f 37/4/20 41/4/20 89/17/20
f 41/4/20 42/5/20 90/18/20
f 44/13/20 40/13/20 94/24/20
f 44/13/20 94/24/20 93/20/20
f 39/15/20 43/15/20 92/19/20
f 43/15/20 44/13/20 93/20/20
f 29/4/4 37/4/4 89/17/4
f 32/13/23 40/13/23 44/13/23
f 35/15/22 43/15/22 39/15/22
f 36/13/7 43/15/7 44/13/7
f 31/15/7 39/15/7 92/19/7
f 33/9/25 41/9/25 37/9/25
f 41/4/20 44/13/20 43/15/20
f 36/13/5 44/13/5 41/4/5
f 34/5/21 42/5/21 43/15/21
f 34/5/8 35/15/8 36/13/8
f 48/1/2 52/1/26 51/2/26
f 3/15/27 45/15/28 46/14/28
f 7/5/29 46/5/30 48/1/30
f 1/2/31 47/2/32 45/15/32
f 52/21/21 50/14/21 49/15/21
f 47/2/32 51/2/33 49/15/33
f 46/5/30 50/5/34 52/1/34
f 45/15/28 49/15/35 50/14/35
f 88/22/7 94/24/7 40/13/7
f 87/23/7 93/20/7 94/24/7
f 86/11/7 92/19/7 93/20/7
f 85/7/4 91/7/4 38/5/4
f 84/18/4 90/18/4 91/7/4
f 83/3/4 89/17/4 90/18/4
f 82/22/7 88/22/7 32/13/7
f 81/23/7 87/23/7 88/22/7
f 80/11/7 86/11/7 87/23/7
f 79/7/4 85/7/4 30/5/4
f 78/18/4 84/18/4 85/7/4
f 77/3/4 83/3/4 84/18/4
f 73/7/4 79/7/4 18/5/4
f 72/18/4 78/18/4 79/7/4
f 71/3/4 77/3/4 78/18/4
f 76/22/7 82/22/7 20/13/7
f 75/25/7 81/23/7 82/22/7
f 74/11/7 80/11/7 81/23/7
f 67/27/9 73/7/9 14/5/37
f 58/7/3 67/27/3 10/5/3
f 149/2/28 150/1/28 107/1/27
f 164/6/4 107/1/4 109/5/4
f 161/11/7 105/15/7 103/2/7
f 155/12/20 103/2/20 107/1/20
f 113/15/44 112/14/44 109/14/44
f 161/11/45 170/11/45 113/15/45
f 119/9/5 122/13/5 118/13/5
f 170/11/47 176/11/47 117/15/48
f 117/15/48 116/14/52 112/14/50
f 125/15/8 124/14/8 120/14/8
f 182/11/7 121/15/7 117/15/7
f 121/15/21 120/14/21 116/14/21
f 179/3/4 119/4/4 115/4/4
f 133/15/22 137/15/22 125/15/22
f 123/9/8 126/13/8 122/13/8
f 138/13/23 134/13/23 122/13/23
f 143/4/4 136/5/4 144/5/4
f 144/14/24 140/14/24 132/14/24
f 185/3/4 131/4/4 119/4/4
f 137/15/4 138/13/4 126/13/4
f 131/9/25 135/9/25 123/9/25
f 136/14/24 132/14/24 120/14/24
f 188/11/7 133/15/7 121/15/7
f 135/4/7 136/5/7 124/5/7
f 193/7/8 140/5/8 144/5/8
f 144/5/8 143/4/8 192/18/8
f 143/4/8 139/4/8 191/17/8
f 143/4/8 191/17/8 192/18/8
f 196/24/8 142/13/8 146/13/8
f 146/13/8 145/15/8 195/20/8
f 145/15/8 141/15/8 194/19/8
f 145/15/8 194/19/8 195/20/8
f 191/17/4 139/4/4 131/4/4
f 146/13/23 142/13/23 134/13/23
f 141/15/22 145/15/22 137/15/22
f 145/15/7 138/13/7 146/13/7
f 194/19/7 141/15/7 133/15/7
f 139/9/25 143/9/25 135/9/25
f 145/15/8 146/13/8 143/4/8
f 143/4/5 146/13/5 138/13/5
f 145/15/21 144/5/21 136/5/21
f 138/13/20 137/15/20 136/5/20
f 153/2/35 154/1/35 150/1/28
f 148/14/2 147/15/2 105/15/1
f 150/1/30 148/5/30 109/5/29
f 147/15/32 149/2/32 103/2/31
f 151/15/21 152/14/21 154/21/21
f 151/15/33 153/2/33 149/2/32
f 154/1/34 152/5/34 148/5/30
f 152/14/26 151/15/26 147/15/2
f 142/13/7 196/24/7 190/22/7
f 196/24/7 195/20/7 189/23/7
f 195/20/7 194/19/7 188/11/7
f 140/5/4 193/7/4 187/7/4
f 193/7/4 192/18/4 186/18/4
f 192/18/4 191/17/4 185/3/4
f 134/13/7 190/22/7 184/22/7
f 190/22/7 189/23/7 183/23/7
f 189/23/7 188/11/7 182/11/7
f 132/5/4 187/7/4 181/7/4
f 187/7/4 186/18/4 180/18/4
f 186/18/4 185/3/4 179/3/4
f 120/5/4 181/7/4 175/7/4
f 181/7/4 180/18/4 174/18/4
f 180/18/4 179/3/4 173/3/4
f 122/13/7 184/22/7 178/22/7
f 184/22/7 183/23/7 177/25/7
f 183/23/7 182/11/7 176/11/7
f 116/5/52 175/7/40 169/27/40
f 112/5/38 169/27/38 160/7/38
f 197/12/7 199/11/7 161/11/7
