# Blender 4.0.2
# www.blender.org
mtllib pillar_purple2.mtl
o Cylinder
v 0.000000 -6.000000 -1.000000
v 0.500000 -6.000000 -0.866025
v 0.866025 -6.000000 -0.500000
v 1.000000 -6.000000 0.000000
v 0.866025 -6.000000 0.500000
v 0.500000 -6.000000 0.866025
v 0.000000 -6.000000 1.000000
v -0.500000 -6.000000 0.866025
v -0.866025 -6.000000 0.500000
v -1.000000 -6.000000 0.000000
v -0.866025 -6.000000 -0.500000
v -0.500000 -6.000000 -0.866025
v 0.000000 0.000000 -1.000000
v 0.500000 0.000000 -0.866025
v 0.866025 0.000000 -0.500000
v 1.000000 0.000000 0.000000
v 0.866025 0.000000 0.500000
v 0.500000 0.000000 0.866025
v 0.000000 0.000000 1.000000
v -0.500000 0.000000 0.866025
v -0.866025 0.000000 0.500000
v -1.000000 0.000000 0.000000
v -0.866025 0.000000 -0.500000
v -0.500000 0.000000 -0.866025
vn -0.0000 1.0000 -0.0000
vn -0.0000 -1.0000 -0.0000
vn -0.2588 -0.0000 -0.9659
vn -0.7071 -0.0000 -0.7071
vn -0.9659 -0.0000 -0.2588
vn -0.9659 -0.0000 0.2588
vn -0.7071 -0.0000 0.7071
vn -0.2588 -0.0000 0.9659
vn 0.2588 -0.0000 0.9659
vn 0.7071 -0.0000 0.7071
vn 0.9659 -0.0000 0.2588
vn 0.9659 -0.0000 -0.2588
vn 0.7071 -0.0000 -0.7071
vn 0.2588 -0.0000 -0.9659
vt 0.083333 0.750000
vt 0.166667 0.750000
vt 0.250000 0.750000
vt 0.333333 0.750000
vt 0.416667 0.750000
vt 0.500000 0.750000
vt 0.583333 0.750000
vt 0.666667 0.750000
vt 0.750000 0.750000
vt 0.833333 0.750000
vt 0.916667 0.750000
vt 1.000000 0.750000
vt 0.750000 0.490000
vt 0.870000 0.457846
vt 0.957846 0.370000
vt 0.990000 0.250000
vt 0.957846 0.130000
vt 0.870000 0.042154
vt 0.750000 0.010000
vt 0.630000 0.042154
vt 0.542154 0.130000
vt 0.510000 0.250000
vt 0.542154 0.370000
vt 0.630000 0.457846
vt 0.083333 0.500000
vt 0.000000 0.750000
vt 0.000000 0.500000
vt 0.166667 0.500000
vt 0.250000 0.500000
vt 0.333333 0.500000
vt 0.416667 0.500000
vt 0.500000 0.500000
vt 0.583333 0.500000
vt 0.666667 0.500000
vt 0.750000 0.500000
vt 0.833333 0.500000
vt 0.916667 0.500000
vt 1.000000 0.500000
s 0
usemtl Material.001
f 24/1/1 23/2/1 22/3/1 21/4/1 20/5/1 19/6/1 18/7/1 17/8/1 16/9/1 15/10/1 14/11/1 13/12/1
f 1/13/2 2/14/2 3/15/2 4/16/2 5/17/2 6/18/2 7/19/2 8/20/2 9/21/2 10/22/2 11/23/2 12/24/2
f 12/25/3 24/1/3 13/26/3 1/27/3
f 11/28/4 23/2/4 24/1/4 12/25/4
f 10/29/5 22/3/5 23/2/5 11/28/5
f 9/30/6 21/4/6 22/3/6 10/29/6
f 8/31/7 20/5/7 21/4/7 9/30/7
f 7/32/8 19/6/8 20/5/8 8/31/8
f 6/33/9 18/7/9 19/6/9 7/32/9
f 5/34/10 17/8/10 18/7/10 6/33/10
f 4/35/11 16/9/11 17/8/11 5/34/11
f 3/36/12 15/10/12 16/9/12 4/35/12
f 2/37/13 14/11/13 15/10/13 3/36/13
f 1/38/14 13/12/14 14/11/14 2/37/14
